<svg width="400" height="300" xmlns="http://www.w3.org/2000/svg">
  <defs>
    <linearGradient id="grad3" x1="0%" y1="0%" x2="100%" y2="100%">
      <stop offset="0%" style="stop-color:#667eea;stop-opacity:1" />
      <stop offset="100%" style="stop-color:#764ba2;stop-opacity:1" />
    </linearGradient>
  </defs>
  <rect width="400" height="300" fill="url(#grad3)"/>
  <!-- Corporate website doodle -->
  <rect x="150" y="100" width="100" height="80" rx="5" fill="#fff" opacity="0.9"/>
  <!-- Browser window -->
  <rect x="155" y="105" width="90" height="15" rx="2" fill="#333"/>
  <circle cx="165" cy="112" r="3" fill="#ff6b6b"/>
  <circle cx="175" cy="112" r="3" fill="#ffd93d"/>
  <circle cx="185" cy="112" r="3" fill="#6bcf7f"/>
  <!-- Website content -->
  <rect x="160" y="125" width="80" height="8" rx="1" fill="#ddd"/>
  <rect x="160" y="140" width="60" height="8" rx="1" fill="#ddd"/>
  <rect x="160" y="155" width="70" height="8" rx="1" fill="#ddd"/>
  <!-- Building -->
  <rect x="180" y="200" width="40" height="60" fill="#fff" opacity="0.8"/>
  <rect x="185" y="205" width="8" height="8" fill="#333"/>
  <rect x="200" y="205" width="8" height="8" fill="#333"/>
  <rect x="185" y="220" width="8" height="8" fill="#333"/>
  <rect x="200" y="220" width="8" height="8" fill="#333"/>
  <text x="200" y="280" text-anchor="middle" fill="#fff" font-family="Arial" font-size="14" font-weight="bold">CORPORATE WEBSITE</text>
</svg>