<svg width="400" height="300" xmlns="http://www.w3.org/2000/svg">
  <defs>
    <linearGradient id="grad6" x1="0%" y1="0%" x2="100%" y2="100%">
      <stop offset="0%" style="stop-color:#fa709a;stop-opacity:1" />
      <stop offset="100%" style="stop-color:#fee140;stop-opacity:1" />
    </linearGradient>
  </defs>
  <rect width="400" height="300" fill="url(#grad6)"/>
  <!-- Restaurant app doodle -->
  <!-- Phone -->
  <rect x="170" y="100" width="60" height="100" rx="10" fill="#fff" opacity="0.9"/>
  <rect x="175" y="110" width="50" height="80" rx="5" fill="#333"/>
  <!-- Food items -->
  <circle cx="190" cy="130" r="8" fill="#ff6b6b"/>
  <circle cx="210" cy="130" r="8" fill="#4ecdc4"/>
  <circle cx="190" cy="150" r="8" fill="#ffd93d"/>
  <circle cx="210" cy="150" r="8" fill="#a8e6cf"/>
  <!-- Plate -->
  <ellipse cx="200" cy="175" rx="25" ry="8" fill="#fff" opacity="0.8"/>
  <!-- Fork and knife -->
  <rect x="185" y="190" width="3" height="25" fill="#fff"/>
  <rect x="190" y="190" width="3" height="25" fill="#fff"/>
  <rect x="207" y="190" width="3" height="25" fill="#fff"/>
  <rect x="212" y="190" width="3" height="25" fill="#fff"/>
  <rect x="185" y="210" width="15" height="3" fill="#fff"/>
  <rect x="207" y="210" width="15" height="3" fill="#fff"/>
  <!-- Delivery scooter -->
  <circle cx="200" cy="240" r="12" fill="#fff"/>
  <circle cx="200" cy="240" r="8" fill="#333"/>
  <rect x="195" y="235" width="10" height="5" fill="#fff"/>
  <line x1="185" y1="240" x2="175" y2="235" stroke="#fff" stroke-width="2"/>
  <line x1="215" y1="240" x2="225" y2="235" stroke="#fff" stroke-width="2"/>
  <text x="200" y="275" text-anchor="middle" fill="#fff" font-family="Arial" font-size="14" font-weight="bold">RESTAURANT APP</text>
</svg>